REM GENRE Pop
REM DATE 2018
REM DISCID 7F09CF0A
REM COMMENT "ExactAudioCopy v1.3"
PERFORMER "Frank Boeijen"
TITLE "Palermo"
REM COMPOSER ""
FILE "01. Frank Boeijen - Achter De Wolken.wav" WAVE
  TRACK 01 AUDIO
    TITLE "Achter De Wolken"
    PERFORMER "Frank Boeijen"
    REM COMPOSER ""
    ISRC NL5BD1700101
    FLAGS DCP
    INDEX 01 00:00:00
  TRACK 02 AUDIO
    TITLE "Hoe Het Was"
    PERFORMER "Frank Boeijen"
    REM COMPOSER ""
    ISRC NL5BD1700102
    FLAGS DCP
    INDEX 00 04:30:66
FILE "02. Frank Boeijen - Hoe Het Was.wav" WAVE
    INDEX 01 00:00:00
  TRACK 03 AUDIO
    TITLE "Vuur En Vlam"
    PERFORMER "Frank Boeijen"
    REM COMPOSER ""
    ISRC NL5BD1700103
    FLAGS DCP
    INDEX 00 04:12:65
FILE "03. Frank Boeijen - Vuur En Vlam.wav" WAVE
    INDEX 01 00:00:00
  TRACK 04 AUDIO
    TITLE "Jij Bent Hier"
    PERFORMER "Frank Boeijen"
    REM COMPOSER ""
    ISRC NL5BD1700104
    FLAGS DCP
    INDEX 00 03:08:00
FILE "04. Frank Boeijen - Jij Bent Hier.wav" WAVE
    INDEX 01 00:00:00
  TRACK 05 AUDIO
    TITLE "Vandaag"
    PERFORMER "Frank Boeijen"
    REM COMPOSER ""
    ISRC NL5BD1700105
    FLAGS DCP
    INDEX 00 03:26:14
FILE "05. Frank Boeijen - Vandaag.wav" WAVE
    INDEX 01 00:00:00
  TRACK 06 AUDIO
    TITLE "Daar Zal Het Zijn"
    PERFORMER "Frank Boeijen"
    REM COMPOSER ""
    ISRC NL5BD1700106
    FLAGS DCP
    INDEX 00 04:07:72
FILE "06. Frank Boeijen - Daar Zal Het Zijn.wav" WAVE
    INDEX 01 00:00:00
  TRACK 07 AUDIO
    TITLE "Alles Is Teder"
    PERFORMER "Frank Boeijen"
    REM COMPOSER ""
    ISRC NL5BD1700107
    FLAGS DCP
    INDEX 00 03:50:46
FILE "07. Frank Boeijen - Alles Is Teder.wav" WAVE
    INDEX 01 00:00:00
  TRACK 08 AUDIO
    TITLE "Zon"
    PERFORMER "Frank Boeijen"
    REM COMPOSER ""
    ISRC NL5BD1700108
    FLAGS DCP
    INDEX 00 04:34:25
FILE "08. Frank Boeijen - Zon.wav" WAVE
    INDEX 01 00:00:00
  TRACK 09 AUDIO
    TITLE "Droom Van Jou"
    PERFORMER "Frank Boeijen"
    REM COMPOSER ""
    ISRC NL5BD1700109
    FLAGS DCP
    INDEX 00 03:50:04
FILE "09. Frank Boeijen - Droom Van Jou.wav" WAVE
    INDEX 01 00:00:00
  TRACK 10 AUDIO
    TITLE "Hoe Het Ook Gaat"
    PERFORMER "Frank Boeijen"
    REM COMPOSER ""
    ISRC NL5BD1700110
    FLAGS DCP
    INDEX 00 04:47:13
FILE "10. Frank Boeijen - Hoe Het Ook Gaat.wav" WAVE
    INDEX 01 00:00:00
